<?xml version="1.0" encoding="iso-8859-1"?>
<!-- Uploaded to: SVG Repo, www.svgrepo.com, Generator: SVG Repo Mixer Tools -->
<svg fill="#000000" version="1.1" id="Layer_1" xmlns="http://www.w3.org/2000/svg" xmlns:xlink="http://www.w3.org/1999/xlink" 
	 viewBox="0 0 480 480" xml:space="preserve">
<g>
	<g>
		<path d="M440,440h-8v-88.808c18.232-3.72,32-19.872,32-39.192v-88v-8v-80v-8V40c0-22.056-17.944-40-40-40h-80
			c-13.128,0-24.704,6.448-32,16.248C304.704,6.448,293.128,0,280,0h-80c-13.128,0-24.704,6.448-32,16.248
			C160.704,6.448,149.128,0,136,0H56C33.944,0,16,17.944,16,40v88v8v80v8v88c0,19.312,13.768,35.472,32,39.192V440h-8
			c-22.056,0-40,17.944-40,40h16c0-13.232,10.768-24,24-24h32c13.232,0,24,10.768,24,24h16c0-22.056-17.944-40-40-40h-8v-88h72
			c13.128,0,24.704-6.448,32-16.248c7.296,9.8,18.872,16.248,32,16.248h80c13.128,0,24.704-6.448,32-16.248
			c7.296,9.8,18.872,16.248,32,16.248h72v88h-8c-22.056,0-40,17.944-40,40h16c0-13.232,10.768-24,24-24h32c13.232,0,24,10.768,24,24
			h16C480,457.944,462.056,440,440,440z M136,336H56c-10.432,0-19.328-6.688-22.632-16h125.264C155.328,329.312,146.432,336,136,336
			z M160,224v80H32v-80v-8c0-13.232,10.768-24,24-24h80c13.232,0,24,10.768,24,24V224z M160,136v48.208
			c-6.704-5.08-14.96-8.208-24-8.208H56c-9.04,0-17.296,3.128-24,8.208V136v-8c0-13.232,10.768-24,24-24h80
			c13.232,0,24,10.768,24,24V136z M160,96.208C153.296,91.128,145.04,88,136,88H56c-9.04,0-17.296,3.128-24,8.208V40
			c0-13.232,10.768-24,24-24h80c13.232,0,24,10.768,24,24V96.208z M280,336h-80c-10.432,0-19.328-6.688-22.632-16h125.264
			C299.328,329.312,290.432,336,280,336z M304,224v80H176v-80v-8c0-13.232,10.768-24,24-24h80c13.232,0,24,10.768,24,24V224z
			 M304,136v48.208c-6.704-5.08-14.96-8.208-24-8.208h-80c-9.04,0-17.296,3.128-24,8.208V136v-8c0-13.232,10.768-24,24-24h80
			c13.232,0,24,10.768,24,24V136z M304,96.208C297.296,91.128,289.04,88,280,88h-80c-9.04,0-17.296,3.128-24,8.208V40
			c0-13.232,10.768-24,24-24h80c13.232,0,24,10.768,24,24V96.208z M320,40c0-13.232,10.768-24,24-24h80c13.232,0,24,10.768,24,24
			v56.208C441.296,91.128,433.04,88,424,88h-80c-9.04,0-17.296,3.128-24,8.208V40z M320,136v-8c0-13.232,10.768-24,24-24h80
			c13.232,0,24,10.768,24,24v8v48.208c-6.704-5.08-14.96-8.208-24-8.208h-80c-9.04,0-17.296,3.128-24,8.208V136z M320,224v-8
			c0-13.232,10.768-24,24-24h80c13.232,0,24,10.768,24,24v8v80H320V224z M344,336c-10.432,0-19.328-6.688-22.632-16h125.264
			c-3.304,9.312-12.2,16-22.632,16H344z"  fill='yellow' />
	</g>
</g>

</svg>